<svg xmlns="http://www.w3.org/2000/svg" viewBox="0 0 3728.14 737.49"><defs><style>.cls-1{fill:#d45400;}</style></defs><g id="Capa_2" data-name="Capa 2"><g id="Capa_1-2" data-name="Capa 1"><path class="cls-1" d="M353.08,697.17q-78.65-137.32-154.86-276Q159.43,480.86,121.3,541q0,90.85-.11,181.71Q60.58,729.86,0,737.49V0H121.63q-.1,168.29-.2,336.56Q230.39,166.46,344.87,0H486.52Q382.74,145.07,282.92,292.89,388.31,489.26,498.35,683.05,425.69,689.79,353.08,697.17Z"/><path class="cls-1" d="M977.65,0q-.12,60.51-.25,121-144.35,1.64-288.68,3.76-.16,72.4-.31,144.8,129.71-4.14,259.44-7.41-.14,60.69-.26,121.37-129.75,4.77-259.44,10.83Q688,468.19,687.84,542,836.37,532.5,985,525.29q-.12,60.47-.25,120.94Q775.19,658.74,566,677q.66-338.49,1.33-677Z"/><path class="cls-1" d="M1491.89,0q-.08,58.47-.14,116.94-144.37.69-288.76,1.89l-.24,137.87q129.78-2.31,259.58-3.76L1462.18,370q-129.84,2.12-259.65,5.5-.12,70.31-.25,140.6,148.73-5.34,297.51-8.36-.06,58.46-.13,116.91-209.79,5.24-419.36,16.2.65-320.44,1.28-640.88Z"/><path class="cls-1" d="M2040.11,215.67c.08,59.66-13.53,122-56.17,167.39-41.42,44.13-100.9,58.91-159.55,60q-53.58.12-107.16.48,0,88.7-.08,177.41-60.93.63-121.86,1.7.26-311.33.52-622.64h228.63c57.61.93,117.61,13.58,159.37,55.86C2026,98.54,2040,158.11,2040.11,215.67Zm-115.55,4.11c.61-27.81-6.88-58.35-27-78-20.53-20.08-51.18-24.88-79.32-25.69q-50.44,0-100.89.12l-.09,210.24q50.48-.26,101-.35c28.47-.87,58.69-6.19,79.36-27.48S1923.93,248.17,1924.56,219.78Z"/><path class="cls-1" d="M2505,0q-.28,59.33-.56,118.66-132.45-1.06-264.89-1.7l.17,153.56q121.73,1.37,243.42,3.53l.21,119.39q-121.74-3.12-243.49-5.07l.27,236.6q-60.93-1.51-121.85-2.58-.26-311.2-.5-622.39Z"/><path class="cls-1" d="M2697.39,0q.53,258.38,1.06,516.76,115.55,5.26,231,11.88.14,64.89.28,129.8Q2753.47,645.85,2577,637.31L2575.76,0Z"/><path class="cls-1" d="M3122.31,0q.68,336.83,1.36,673.65-60.78-5.14-121.57-9.83Q3001.38,331.9,3000.68,0Z"/><path class="cls-1" d="M3343.24,0q57,107.49,112.65,215.75Q3513,108.23,3568.79,0h143.95q-87.64,171.89-179,341.83,99.89,196.52,194.45,395.66-72.45-9.12-145-17.59-62.43-125.08-127-249.09-61.34,111.44-124.17,222-71.09-7-142.23-13.41Q3287.74,511.18,3382.22,341,3293.74,169.54,3201.59,0Z"/></g></g></svg>